<svg width="45" height="45" viewBox="0 0 45 45" fill="none" xmlns="http://www.w3.org/2000/svg">
<rect y="0.548828" width="44.1453" height="44.1453" rx="22.0727" fill="url(#paint0_linear_246_3672)"/>
<path d="M6.59838 30.1216V17.7574H10.1679C14.7262 17.7574 17.0053 19.7664 17.0053 23.7843C17.0053 25.6927 16.373 27.2274 15.1084 28.3885C13.8439 29.5439 12.1482 30.1216 10.0214 30.1216H6.59838ZM8.64183 19.4991V28.3885H10.28C11.7228 28.3885 12.8437 27.9919 13.6427 27.1987C14.4474 26.4054 14.8498 25.2846 14.8498 23.836C14.8498 20.9448 13.3524 19.4991 10.3576 19.4991H8.64183ZM18.7039 29.6301V27.5177C18.8936 27.6901 19.1177 27.8453 19.3764 27.9833C19.6408 28.1212 19.9196 28.2391 20.2127 28.3368C20.5059 28.4288 20.799 28.5006 21.0922 28.5524C21.3854 28.6041 21.6555 28.63 21.9027 28.63C22.7649 28.63 23.4058 28.4862 23.8254 28.1988C24.2508 27.9114 24.4635 27.4947 24.4635 26.9486C24.4635 26.6555 24.3916 26.4026 24.2479 26.1899C24.1099 25.9715 23.9145 25.7732 23.6616 25.595C23.4087 25.4168 23.1098 25.2472 22.7649 25.0863C22.4258 24.9196 22.0608 24.7471 21.6699 24.5689C21.2503 24.3447 20.8594 24.1177 20.4973 23.8878C20.1351 23.6579 19.819 23.4049 19.5488 23.129C19.2844 22.8474 19.0746 22.5312 18.9194 22.1806C18.77 21.83 18.6952 21.419 18.6952 20.9476C18.6952 20.3671 18.8246 19.8641 19.0832 19.4388C19.3477 19.0076 19.6925 18.6541 20.1179 18.3782C20.549 18.0966 21.0376 17.8896 21.5837 17.7574C22.1297 17.6195 22.6873 17.5505 23.2564 17.5505C24.5497 17.5505 25.4924 17.6971 26.0844 17.9902V20.0164C25.3832 19.5106 24.4807 19.2577 23.3771 19.2577C23.0724 19.2577 22.7678 19.2864 22.4631 19.3439C22.1642 19.4014 21.8941 19.4962 21.6526 19.6284C21.417 19.7606 21.2244 19.9302 21.075 20.1371C20.9255 20.3441 20.8508 20.5941 20.8508 20.8873C20.8508 21.1632 20.9083 21.4017 21.0232 21.6029C21.1382 21.8041 21.3049 21.988 21.5233 22.1547C21.7475 22.3214 22.0176 22.4852 22.3338 22.6462C22.6557 22.8014 23.0264 22.971 23.446 23.1549C23.8772 23.3791 24.2824 23.6147 24.6618 23.8619C25.0469 24.1091 25.3832 24.3821 25.6706 24.681C25.9637 24.9799 26.1936 25.3133 26.3603 25.6812C26.5328 26.0433 26.619 26.4572 26.619 26.9228C26.619 27.5493 26.4925 28.0781 26.2396 28.5092C25.9867 28.9403 25.6447 29.291 25.2136 29.5611C24.7882 29.8313 24.2968 30.0267 23.7392 30.1474C23.1816 30.2682 22.5925 30.3285 21.9717 30.3285C21.7647 30.3285 21.5089 30.3113 21.2043 30.2768C20.9054 30.248 20.5979 30.2021 20.2817 30.1388C19.9656 30.0813 19.6667 30.0095 19.385 29.9233C19.1034 29.8371 18.8763 29.7393 18.7039 29.6301ZM37.5174 29.6043C36.5862 30.0871 35.4279 30.3285 34.0427 30.3285C32.2492 30.3285 30.8122 29.7623 29.7316 28.63C28.6509 27.4976 28.1106 26.0117 28.1106 24.1723C28.1106 22.195 28.717 20.597 29.9299 19.3784C31.1485 18.1598 32.6861 17.5505 34.5427 17.5505C35.7383 17.5505 36.7299 17.7201 37.5174 18.0592V20.094C36.6839 19.5997 35.7642 19.3525 34.7583 19.3525C33.419 19.3525 32.3326 19.7808 31.4991 20.6372C30.6714 21.4937 30.2575 22.6376 30.2575 24.0688C30.2575 25.4311 30.6455 26.5175 31.4215 27.328C32.1975 28.1327 33.2178 28.5351 34.4824 28.5351C35.6492 28.5351 36.6609 28.2592 37.5174 27.7074V29.6043Z" fill="white"/>
<defs>
<linearGradient id="paint0_linear_246_3672" x1="0" y1="0.548828" x2="44.1453" y2="44.6942" gradientUnits="userSpaceOnUse">
<stop stop-color="#2B7FFF"/>
<stop offset="1" stop-color="#155DFC"/>
</linearGradient>
</defs>
</svg>
