<svg width="24" height="25" viewBox="0 0 24 25" fill="none" xmlns="http://www.w3.org/2000/svg">
<path d="M7.04942 11.7929L4.92942 13.9139C4.17925 14.6641 3.75781 15.6815 3.75781 16.7424C3.75781 17.8033 4.17925 18.8208 4.92942 19.5709C5.67958 20.3211 6.69702 20.7425 7.75792 20.7425C8.81881 20.7425 9.83625 20.3211 10.5864 19.5709L13.4144 16.7429C13.7859 16.3715 14.0805 15.9305 14.2816 15.4452C14.4826 14.9599 14.5861 14.4397 14.5861 13.9144C14.5861 13.3891 14.4826 12.869 14.2816 12.3837C14.0805 11.8983 13.7859 11.4574 13.4144 11.0859L12.3544 12.1459C12.5866 12.3781 12.7708 12.6537 12.8965 12.9571C13.0222 13.2604 13.0869 13.5856 13.0869 13.9139C13.0869 14.2423 13.0222 14.5674 12.8965 14.8708C12.7708 15.1742 12.5866 15.4498 12.3544 15.6819L9.52442 18.5099C9.05291 18.9653 8.4214 19.2173 7.76591 19.2116C7.11042 19.2059 6.48339 18.943 6.01987 18.4795C5.55635 18.016 5.29343 17.3889 5.28773 16.7334C5.28203 16.0779 5.53402 15.4464 5.98942 14.9749L8.10942 12.8539L7.04942 11.7929Z" fill="#333333" stroke="#333333" stroke-width="0.7"/>
<path d="M15.8887 12.1459L18.0097 10.0259C18.4752 9.55645 18.7358 8.92169 18.7345 8.26055C18.7331 7.5994 18.4699 6.96571 18.0025 6.49815C17.5351 6.03058 16.9014 5.76721 16.2403 5.76567C15.5791 5.76413 14.9443 6.02454 14.4747 6.48993L11.6457 9.31793C11.4135 9.55008 11.2293 9.82571 11.1036 10.1291C10.9779 10.4324 10.9132 10.7576 10.9132 11.0859C10.9132 11.4143 10.9779 11.7394 11.1036 12.0428C11.2293 12.3461 11.4135 12.6218 11.6457 12.8539L10.5857 13.9139C10.2143 13.5425 9.9196 13.1015 9.71856 12.6162C9.51753 12.1309 9.41406 11.6107 9.41406 11.0854C9.41406 10.5601 9.51753 10.04 9.71856 9.55465C9.9196 9.06933 10.2143 8.62836 10.5857 8.25693L13.4137 5.42893C14.1639 4.67876 15.1813 4.25732 16.2422 4.25732C17.3031 4.25732 18.3205 4.67876 19.0707 5.42893C19.8209 6.17909 20.2423 7.19653 20.2423 8.25743C20.2423 9.31832 19.8209 10.3358 19.0707 11.0859L16.9497 13.2069L15.8887 12.1459Z" fill="#333333" stroke="#333333" stroke-width="0.7"/>
</svg>
